<svg id="Ebene_1" data-name="Ebene 1" xmlns="http://www.w3.org/2000/svg" width="800" height="800" viewBox="0 0 800 800"><defs><style>.cls-1{fill:#d62624;}.cls-2{fill:none;stroke:#000;stroke-miterlimit:10;stroke-width:4px;}</style></defs><title>2019-04-02_Logo_nur-Text</title><g id="Heart"><path id="heart_body" class="cls-1" d="M399.7815,274.0952c1.6607,1.6607-38.196-81.3739-132.8555-79.7132C208.3311,195.41,130.5206,255.7889,132.41,352.1478c3.3214,169.3907,267.3716,313.8709,267.3716,313.8709S660.51,528.1812,667.153,345.505c3.2611-89.68-78.4095-147.3228-136.1768-149.4623C441.2988,192.7213,398.1208,272.4346,399.7815,274.0952Z"/><path d="M399.7529,669.9922l-1.6518-.9033c-.6631-.3633-67.1-36.9561-133.0459-93.834-38.8028-33.4678-69.88-67.3291-92.3682-100.6445-28.2768-41.8916-43.0054-83.0713-43.7764-122.3936-.8657-44.1465,15.1153-85.54,44.9981-116.5542,26.4809-27.4829,61.23-44.2236,92.956-44.78,48.772-.8779,82.855,20.6372,102.8594,38.8194a158.9745,158.9745,0,0,1,29.8306,36.249c5.0371-8.8408,16.5039-25.1758,35.2207-40.51,27.8564-22.8222,61.16-34.1982,96.331-32.8955,30.9151,1.145,66.6485,17.57,93.2549,42.8648,31.3516,29.8047,47.79,68.9492,46.29,110.2221-1.5391,42.3169-16.7305,85.6993-45.1534,128.9424-22.6279,34.4287-53.6582,68.8594-92.2275,102.335-65.5576,56.8984-131.1982,91.8574-131.8535,92.2041ZM269.668,197.8579c-.89,0-1.7808.0078-2.68.0234-29.9077.525-62.8189,16.4644-88.0381,42.6382-28.584,29.6665-43.8691,69.2857-43.04,111.56,1.6894,86.1782,73.5976,166.0034,133.6235,217.7934,59.62,51.4395,119.645,86.1514,130.2749,92.15,10.5776-5.791,69.8081-39.1162,128.978-90.4921,59.6592-51.8,131.4844-133.084,134.8692-226.1539,1.4267-39.2392-14.24-76.4917-44.1162-104.8945-25.4239-24.17-59.4082-39.8584-88.6924-40.9429-43.9922-1.6264-75.835,17.5728-94.7862,33.9688-20.5009,17.7358-31.2656,36.4692-32.7324,40.45a3.5305,3.5305,0,0,1-1.7363,3.1807l-2.332,1.3647-1.9536-1.9336a3.4931,3.4931,0,0,1-1.0152-1.9668c-1.6636-3.7412-12.001-22.42-31.9712-40.3506C345.7144,217.5469,314.3066,197.8579,269.668,197.8579Z"/></g><path class="cls-2" d="M254.4751,122.5674l-25.85-61.3613,31.1523-13.1236q9.71-4.0905,16.2246-1.0654a17.5535,17.5535,0,0,1,9.1656,9.3183,15.3738,15.3738,0,0,1,.9091,9.3829,14.34,14.34,0,0,1-5.56,8.35q13.1242-2.141,17.935,9.2763a20.9232,20.9232,0,0,1,.9385,13.9756q-1.9409,7.1433-15.6958,12.9375Zm1.4062-45.1607,8.7212-3.6738q3.2806-1.3821,3.93-3.6138a6.0141,6.0141,0,0,0-.1479-4.12q-2.1585-5.1247-8.4522-2.4736l-8.4062,3.5415ZM266.07,101.5918l9.17-3.8633q3.4161-1.4392,4.3023-3.7973a5.848,5.848,0,0,0-.0044-4.4712,6.2821,6.2821,0,0,0-3.189-3.2349q-2.2983-1.122-6.4345.62l-8.5411,3.5982Z"/><path class="cls-2" d="M361.7832,73.1758l3.1011,15.5971L315.75,98.542,302.7651,33.2363,351.9,23.4673l2.9961,15.07-29.4712,5.86,1.8838,9.4726,23.8257-4.7373,2.8823,14.4966L330.19,68.3667l2.1216,10.6689Z"/><path class="cls-2" d="M433.666,88.5127l-22.6553-.3672-9.3115-25.6172-6.4443-.1045-.4121,25.46-20.4361-.3311,1.0791-66.5751,34.7749.5639q11.5109.186,17.7881,5.6792a17.7174,17.7174,0,0,1,6.1348,14.32,21.3845,21.3845,0,0,1-2.5059,10.1314q-2.4126,4.3768-9.5888,7.626Zm-38.18-40.3306,8.73.1416a10.7458,10.7458,0,0,0,6.22-1.5088,5.3756,5.3756,0,0,0,2.418-4.6933q.104-6.389-7.749-6.5166l-9.4131-.1524Z"/><path class="cls-2" d="M444.78,89.93l15.3681-64.7857,25.0606,5.9449q16.3257,3.873,22.1455,15.48a34.7786,34.7786,0,0,1,2.8018,24.3277q-3.4453,14.5232-14.3106,21.5463T471.0742,96.168Zm23.4218-10.1856,5.1729,1.2271q4.9365,1.171,9.4668-2.8174t6.49-12.2471a24.3028,24.3028,0,0,0-.12-12.9126,9.8254,9.8254,0,0,0-7.4931-7.1924l-5.1739-1.227Z"/><path class="cls-2" d="M543.0088,122.4985l2.22-13.4687L529.11,101.39l-9.2325,10.1446-14.9931-7.107,47.0937-51.3623,19.5264,9.2559-9.6494,69.1113Zm-4.5322-32.7558,9.7343,4.6142,3.4053-19.7612Z"/><path class="cls-2" d="M613.2139,170.5635l-13.1543-10.18,3.582-34.4268a112.3531,112.3531,0,0,1,2.8154-15.208,46.3231,46.3231,0,0,1-5.414,9.6265l-19.7325,25.5-13.1162-10.15,40.7491-52.6587,15.2773,11.8218L621.5635,123.67a93.9461,93.9461,0,0,1-2.2686,14.4068,96.8782,96.8782,0,0,1,9.4531-14.7662l12.0606-15.5854,13.1553,10.18Z"/><path class="cls-2" d="M641.65,200.7671l54.9307-37.63,14.5556,21.2476q9.4834,13.8427,5.9883,26.3486a34.7818,34.7818,0,0,1-14.28,19.8936q-12.3135,8.436-25.0791,6.3305t-20.8418-13.896Zm24.1875,8.2051,3.0049,4.3862q2.8667,4.185,8.9023,4.2783t13.0381-4.7041a24.3035,24.3035,0,0,0,8.5918-9.64,9.8264,9.8264,0,0,0-.7129-10.3618l-3.0049-4.3868Z"/><path class="cls-2" d="M713.2236,299.2192l-14.6865,6.0977-19.21-46.2671,61.4942-25.5317,19.21,46.2671-14.1915,5.892-11.5214-27.7514-8.92,3.7036,9.3145,22.4355-13.65,5.6675-9.3145-22.4355-10.0468,4.1714Z"/><path class="cls-2" d="M712.3193,372.7988l-4.1455-22.2754,23.253-14.22-1.1788-6.3364-25.0332,4.6592-3.7392-20.0938,65.459-12.1831,6.3642,34.1929q2.1064,11.3166-2.0283,18.562a17.7176,17.7176,0,0,1-12.8144,8.86,21.3794,21.3794,0,0,1-10.4268-.441q-4.77-1.494-9.3809-7.88Zm31.9317-45.438,1.5976,8.584a10.7413,10.7413,0,0,0,2.7159,5.7959,5.3752,5.3752,0,0,0,5.08,1.4361q6.2827-1.169,4.8457-8.89l-1.7226-9.2553Z"/><path class="cls-2" d="M712.8643,412.4482l66.09,8.0977-4.1113,33.5527q-1.28,10.4576-7.1455,14.6045a17.5567,17.5567,0,0,1-12.6436,3.3164,15.3807,15.3807,0,0,1-8.5918-3.8779,14.3372,14.3372,0,0,1-4.4775-8.9775q-4.6715,12.4511-16.9688,10.9443a20.914,20.914,0,0,1-12.5908-6.1377q-5.2324-5.2368-3.416-20.0508Zm12.43,20.4922-1.2109,9.877q-.45,3.68,1.1543,5.6211a5.85,5.85,0,0,0,3.8809,2.2207,6.2854,6.2854,0,0,0,4.3925-1.1572q2.1168-1.4372,2.6631-5.8907l1.127-9.1992Zm26.0479,3.1914-1.15,9.3936q-.4337,3.5333,1.1807,5.206a6.0145,6.0145,0,0,0,3.6465,1.9209q5.5194.6768,6.3505-6.1015l1.1094-9.0547Z"/><path class="cls-2" d="M702.3682,530.1084l-15.0752-5.0625,15.9482-47.49L766.36,498.752l-15.9473,47.49-14.5664-4.8916,9.5654-28.4844-9.1553-3.0752-7.7334,23.0283-14.0117-4.705,7.7334-23.0284-10.3115-3.4629Z"/><path class="cls-2" d="M653.3008,584.9971l11.5166-19.5137L691.69,570.05l3.2753-5.55-21.9287-12.9424,10.3887-17.6015,57.3418,33.8427L723.0889,597.751q-5.8506,9.9141-13.7285,12.6562a17.72,17.72,0,0,1-15.4815-1.7451,21.3816,21.3816,0,0,1-7.5684-7.1855q-2.6118-4.2613-1.8906-12.1045Zm53.9306-13.2578-4.4384,7.5195a10.7472,10.7472,0,0,0-1.7617,6.1533,5.372,5.372,0,0,0,2.8847,4.4209q5.502,3.249,9.4942-3.5146l4.7851-8.1084Z"/><path class="cls-2" d="M646.4219,593.6816l48.4775,45.6436-17.6562,18.7519q-11.502,12.2169-24.4659,11.4678a34.7777,34.7777,0,0,1-22.48-9.71q-10.8677-10.232-11.5323-23.1524t9.1319-23.3262Zm-2.8594,25.38-3.6445,3.8711q-3.4776,3.6929-2.2823,9.61,1.1968,5.9149,7.376,11.7343a24.2932,24.2932,0,0,0,11.251,6.3389,9.8246,9.8246,0,0,0,9.9717-2.9053l3.6445-3.8711Z"/><path class="cls-2" d="M569.2363,662.6641l10.586,8.6181L594.4609,661.09l-4.2168-13.0527,13.6163-9.4805,21.1777,66.3877L607.3047,717.293,552.12,674.582Zm30.6787,12.3408-8.84,6.1562,15.457,12.7725Z"/><path class="cls-2" d="M492.6387,699.708l15.373-6.3516,28.0889,20.2266a112.1677,112.1677,0,0,1,11.7939,10.0039,46.3418,46.3418,0,0,1-5.66-9.4834l-12.3125-29.8,15.3281-6.333,25.4268,61.5381-17.8536,7.376-23.65-16.6162a94.1275,94.1275,0,0,1-11.3711-9.1309,96.8654,96.8654,0,0,1,8.1113,15.543l7.5254,18.2138-15.374,6.3516Z"/><path class="cls-2" d="M452.3047,709.26l5.1435,66.3847-25.6787,1.99q-16.73,1.2963-25.8154-7.9805a34.7822,34.7822,0,0,1-10.0947-22.3115q-1.1529-14.8813,7.05-24.8867t22.4521-11.1084Zm-19.1943,16.85-5.3018.4111q-5.0567.3926-8.1543,5.5733-3.0952,5.1812-2.44,13.6435a24.2951,24.2951,0,0,0,4.0566,12.26,9.8232,9.8232,0,0,0,9.3311,4.56l5.3007-.41Z"/><path class="cls-2" d="M331.2651,722.2236l2.0147-15.7744,49.6929,6.3467-8.4356,66.0479-49.6924-6.3467,1.9463-15.2422,29.8062,3.8066,1.2236-9.58-24.0967-3.0771,1.8726-14.6611,24.0962,3.0771,1.3784-10.79Z"/><path class="cls-2" d="M267.8506,684.8594l21.3887,7.4775.7768,27.2461,6.084,2.127,8.4033-24.0362,19.2935,6.7451-21.9751,62.8536-32.8311-11.4786q-10.8662-3.8-15.0967-10.9882a17.7173,17.7173,0,0,1-1.3164-15.5235,21.3771,21.3771,0,0,1,5.5669-8.8281q3.6674-3.3956,11.501-4.2207Zm23.5483,50.2959-8.2422-2.8819a10.7411,10.7411,0,0,0-6.3789-.5244,5.3716,5.3716,0,0,0-3.7719,3.6934q-2.1087,6.0322,5.3042,8.624l8.8872,3.1074Z"/><path class="cls-2" d="M233.2578,665.5859l-40.0415,53.1993-27.0088-20.3291q-8.4177-6.3356-9.0791-13.4883a17.559,17.559,0,0,1,3.4458-12.6084,15.382,15.382,0,0,1,7.6533-5.5039,14.3394,14.3394,0,0,1,10.0137.6074q-8.45-10.267-1-20.167A20.9209,20.9209,0,0,1,188.85,639.457q7.1506-1.9144,19.0752,7.0616Zm-39.7432,21.4932-7.561-5.6914q-2.8448-2.14-5.1-1.5791a6.0107,6.0107,0,0,0-3.4868,2.1992q-3.3443,4.4429,2.1123,8.55l7.2881,5.4854Zm15.7818-20.9678-7.9507-5.9843q-2.9612-2.23-5.4453-1.81a5.8451,5.8451,0,0,0-3.8623,2.2519,6.2784,6.2784,0,0,0-1.1929,4.3838q.186,2.55,3.771,5.25l7.4053,5.5733Z"/><path class="cls-2" d="M136.5181,597.79l11.8955-10.5527L181.66,624.7119l-49.8076,44.1875L98.606,631.4248,110.1,621.2275l19.9409,22.4776,7.2251-6.4092L121.1445,619.124l11.0562-9.8086,16.1216,18.1719,8.1372-7.22Z"/><path class="cls-2" d="M113.23,527.94l11.2183,19.6865L107.14,568.6826l3.1914,5.6,22.1226-12.6074,10.12,17.7578-57.85,32.9668-17.22-30.2178q-5.7-10-4.1685-18.2011a17.7165,17.7165,0,0,1,9.2022-12.57,21.3848,21.3848,0,0,1,9.9956-3.002q4.9951-.1509,11.4453,4.37ZM97.9561,581.334l-4.3228-7.586a10.7411,10.7411,0,0,0-4.4658-4.5849,5.372,5.372,0,0,0-5.27.3086q-5.5518,3.1626-1.6636,9.9863l4.6616,8.18Z"/><path class="cls-2" d="M109.1206,517.6992l-63.727,19.294-7.4634-24.65q-4.8618-16.0591,2.2446-26.9268a34.7817,34.7817,0,0,1,19.6191-14.6553q14.286-4.3255,25.82,1.5352T101.29,491.835Zm-20.582-15.123-1.5406-5.0889q-1.47-4.856-7.1962-6.7656t-13.8492.5488a24.2986,24.2986,0,0,0-11.101,6.5967,9.8256,9.8256,0,0,0-2.4483,10.0937l1.5405,5.0889Z"/><path class="cls-2" d="M87.8579,416.4248,75.103,421.2891l1.5152,17.7724,13.4135,2.8692,1.4092,16.5322L23.3521,443.6367l-1.8355-21.5312,64.57-26.4619ZM61.8394,436.834,60.9243,426.1l-18.7881,7.0078Z"/><path class="cls-2" d="M93.8745,331.4976,91.74,347.9937l-31.5166,14.309A112.1575,112.1575,0,0,1,45.6777,367.56a46.33,46.33,0,0,1,11.0425-.1939l31.9766,4.1382-2.1284,16.4477-66.0332-8.5458,2.479-19.1568,26.1777-12.2549A94.0661,94.0661,0,0,1,62.769,342.67a96.7971,96.7971,0,0,1-17.5185-.6933l-19.544-2.5293,2.1348-16.4961Z"/><path class="cls-2" d="M105.6211,291.7354,45.4844,263.1523l11.0561-23.2617q7.2034-15.1545,19.7715-18.417a34.78,34.78,0,0,1,24.3755,2.35q13.481,6.4073,18.0752,18.5015t-1.541,25.0029Zm-5.06-25.0347,2.2823-4.8023q2.1774-4.5813-.775-9.8466t-10.6181-8.9087A24.3,24.3,0,0,0,78.7988,240.56a9.8221,9.8221,0,0,0-8.6006,5.8227l-2.2827,4.8018Z"/><path class="cls-2" d="M154.75,180.4043l12.6567,9.627-30.3281,39.873-52.9956-40.31,30.3281-39.873,12.23,9.3022L108.45,182.94l7.6875,5.8472,14.7061-19.335L142.6074,178.4l-14.7065,19.3345,8.6582,6.5854Z"/><path class="cls-2" d="M218.74,144.019l-17.1318,14.8287L177.5908,145.96l-4.873,4.2178,16.664,19.2525-15.4531,13.3764-43.5766-50.3437,26.2968-22.7622q8.7035-7.5337,17.0449-7.6245a17.7151,17.7151,0,0,1,14.1187,6.5849,21.3818,21.3818,0,0,1,4.8862,9.2222q1.1191,4.8706-2.0634,12.0757Zm-55.3442-4.61,6.6016-5.7144a10.7387,10.7387,0,0,0,3.63-5.2714,5.3732,5.3732,0,0,0-1.3261-5.11q-4.1814-4.8311-10.12.3081l-7.1181,6.1616Z"/></svg>