<svg id="Ebene_1" data-name="Ebene 1" xmlns="http://www.w3.org/2000/svg" viewBox="0 0 758.4189 757.8667"><defs><style>.cls-1{fill:#eaeaea;}</style></defs><title>2019-04-02_Logo_nur-Text</title><path class="cls-1" d="M530.9762,196.0427c57.7673,2.1395,139.4379,59.7827,136.1768,149.4623C660.51,528.1812,399.7815,666.0187,399.7815,666.0187s-264.05-144.48-267.3716-313.8709C130.5206,255.7889,208.3311,195.41,266.926,194.382c94.66-1.6607,134.5162,81.3739,132.8555,79.7132S441.2988,192.7213,530.9762,196.0427ZM401.417,669.1133c.6553-.3467,66.2959-35.3057,131.8535-92.2041,38.5693-33.4756,69.6-67.9063,92.2275-102.335,28.4229-43.2431,43.6143-86.6255,45.1534-128.9424,1.5-41.2729-14.9385-80.4174-46.29-110.2221-26.6064-25.295-62.34-41.72-93.2549-42.8648-35.1709-1.3027-68.4746,10.0733-96.331,32.8955-18.7168,15.3345-30.1836,31.6695-35.2207,40.51a158.9745,158.9745,0,0,0-29.8306-36.249C349.72,211.52,315.6367,190.0044,266.8647,190.8823c-31.7255.5567-66.4751,17.2974-92.956,44.78-29.8828,31.0146-45.8638,72.4077-44.9981,116.5542.771,39.3223,15.5,80.502,43.7764,122.3936,22.4883,33.3154,53.5654,67.1767,92.3682,100.6445,65.9458,56.8779,132.3828,93.4707,133.0459,93.834l1.6518.9033ZM364.32,234.2529c19.97,17.9307,30.3076,36.6094,31.9712,40.3506a3.4931,3.4931,0,0,0,1.0152,1.9668l1.9536,1.9336,2.332-1.3647a3.5305,3.5305,0,0,0,1.7363-3.1807c1.4668-3.9805,12.2315-22.7139,32.7324-40.45,18.9512-16.396,50.794-35.5952,94.7862-33.9688,29.2842,1.0845,63.2685,16.773,88.6924,40.9429,29.8759,28.4028,45.5429,65.6553,44.1162,104.8945-3.3848,93.07-75.21,174.354-134.8692,226.1539-59.17,51.3759-118.4,84.7011-128.978,90.4921-10.63-5.999-70.6553-40.7109-130.2749-92.15C209.5073,518.083,137.5991,438.2578,135.91,352.08c-.8291-42.2744,14.456-81.8936,43.04-111.56,25.2192-26.1738,58.13-42.1132,88.0381-42.6382.8994-.0156,1.7905-.0234,2.68-.0234C314.3066,197.8579,345.7144,217.5469,364.32,234.2529Zm-118.055,1.3028c-.3662-4.381-6.1105-4.9781-7.4491-4.6714-12.12,2.7776-54.7775,22.2278-67.9837,64.8009-12.9535,41.7585-2.5769,66.4617.7655,71.95a5.5986,5.5986,0,0,0,.7947.9707,5.83,5.83,0,0,0,7.8052.4115l.04-.0334a4.0539,4.0539,0,0,0,.8855-4.8228c-5.687-12.106-5.0772-40.2133,1.1661-65.9071,6.9634-28.6574,44.04-51.9231,58.2816-56.9282C244.7183,239.8679,246.4655,237.9573,246.2648,235.5557Zm259.068,0c-.3661-4.381-6.1105-4.9781-7.449-4.6714-12.12,2.7776-54.7775,22.2278-67.9837,64.8009-12.9535,41.7585-2.5769,66.4617.7654,71.95a5.6079,5.6079,0,0,0,.7947.9707,5.83,5.83,0,0,0,7.8053.4115l.04-.0334a4.0539,4.0539,0,0,0,.8855-4.8228c-5.6871-12.106-5.0773-40.2133,1.166-65.9071,6.9635-28.6574,44.04-51.9231,58.2817-56.9282C503.7864,239.8679,505.5335,237.9573,505.3328,235.5557ZM283.6948,110.2578q13.7556-5.795,15.6958-12.9375a20.9232,20.9232,0,0,0-.9385-13.9756q-4.81-11.4177-17.935-9.2763a14.34,14.34,0,0,0,5.56-8.35,15.3738,15.3738,0,0,0-.9091-9.3829,17.5535,17.5535,0,0,0-9.1656-9.3183q-6.5141-3.0249-16.2246,1.0654L228.6255,61.2061l25.85,61.3613Zm-32.1689-43.19,8.4062-3.5415q6.293-2.6506,8.4522,2.4736a6.0141,6.0141,0,0,1,.1479,4.12q-.6481,2.2317-3.93,3.6138l-8.7212,3.6738Zm9.8476,23.376,8.5411-3.5982q4.1352-1.7424,6.4345-.62a6.2821,6.2821,0,0,1,3.189,3.2349,5.848,5.848,0,0,1,.0044,4.4712q-.8862,2.3575-4.3023,3.7973l-9.17,3.8633ZM332.312,79.0356,330.19,68.3667l23.8262-4.7373-2.8823-14.4966L327.3086,53.87l-1.8838-9.4726,29.4712-5.86L351.9,23.4673l-49.1348,9.769L315.75,98.542l49.1348-9.7691-3.1011-15.5971Zm89.7769-19.7377q7.1761-3.2505,9.5888-7.626a21.3845,21.3845,0,0,0,2.5059-10.1314,17.7174,17.7174,0,0,0-6.1348-14.32q-6.2767-5.4924-17.7881-5.6792l-34.7749-.5639-1.0791,66.5751,20.4361.3311.4121-25.46,6.4443.1045,9.3115,25.6172,22.6553.3672ZM395.6924,35.4526l9.4131.1524q7.8529.1274,7.749,6.5166a5.3756,5.3756,0,0,1-2.418,4.6933,10.7458,10.7458,0,0,1-6.22,1.5088l-8.73-.1416ZM471.0742,96.168q13.9057,3.2988,24.7715-3.7242t14.3106-21.5463A34.7786,34.7786,0,0,0,507.3545,46.57q-5.8183-11.6074-22.1455-15.48l-25.0606-5.9449L444.78,89.93Zm5.4707-51.5928,5.1739,1.227a9.8254,9.8254,0,0,1,7.4931,7.1924,24.3028,24.3028,0,0,1,.12,12.9126q-1.96,8.2581-6.49,12.2471t-9.4668,2.8174l-5.1729-1.2271Zm85.3106,86.8569,9.6494-69.1113-19.5264-9.2559-47.0937,51.3623,14.9931,7.107L529.11,101.39l16.1181,7.64-2.22,13.4687ZM551.6162,74.5957l-3.4053,19.7612-9.7343-4.6142Zm102.3477,43.31-13.1553-10.18L628.748,123.3105a96.8782,96.8782,0,0,0-9.4531,14.7662,93.9461,93.9461,0,0,0,2.2686-14.4068l2.6572-28.7817L608.9434,83.0664l-40.7491,52.6587,13.1162,10.15,19.7325-25.5a46.3231,46.3231,0,0,0,5.414-9.6265,112.3531,112.3531,0,0,0-2.8154,15.208l-3.582,34.4268,13.1543,10.18Zm2.96,105.1557q8.0772,11.7906,20.8418,13.896t25.0791-6.3305a34.7818,34.7818,0,0,0,14.28-19.8936q3.4951-12.5054-5.9883-26.3486l-14.5556-21.2476-54.9307,37.63Zm38.7334-34.5171,3.0049,4.3868a9.8264,9.8264,0,0,1,.7129,10.3618,24.3035,24.3035,0,0,1-8.5918,9.64q-7.002,4.7967-13.0381,4.7041t-8.9023-4.2783l-3.0049-4.3862ZM701.69,271.439l10.0459-4.1724,9.3174,22.4346,13.6494-5.669-9.3164-22.4341,8.919-3.7045,11.5254,27.75,14.19-5.8931-19.2149-46.2651-61.4912,25.5375,19.2139,46.2652,14.6855-6.0991Zm36.958,84.2041q4.6128,6.3852,9.3809,7.88a21.3794,21.3794,0,0,0,10.4268.441,17.7176,17.7176,0,0,0,12.8144-8.86q4.1339-7.2444,2.0283-18.562l-6.3642-34.1929-65.459,12.1831,3.7392,20.0938,25.0332-4.6592,1.1788,6.3364-23.253,14.22,4.1455,22.2754Zm18.1192-30.6118,1.7226,9.2553q1.437,7.7205-4.8457,8.89a5.3752,5.3752,0,0,1-5.08-1.4361,10.7413,10.7413,0,0,1-2.7159-5.7959l-1.5976-8.584ZM709.0088,443.92q-1.815,14.8155,3.416,20.0508a20.914,20.914,0,0,0,12.5908,6.1377q12.2975,1.5073,16.9688-10.9443a14.3372,14.3372,0,0,0,4.4775,8.9775,15.3807,15.3807,0,0,0,8.5918,3.8779,17.5567,17.5567,0,0,0,12.6436-3.3164q5.8637-4.1469,7.1455-14.6045l4.1113-33.5527-66.09-8.0977Zm28.292-9.5078-1.127,9.1992q-.5449,4.4532-2.6631,5.8907a6.2854,6.2854,0,0,1-4.3925,1.1572,5.85,5.85,0,0,1-3.8809-2.2207q-1.6039-1.941-1.1543-5.6211l1.2109-9.877Zm25.1777,3.084-1.1094,9.0547q-.8306,6.7778-6.3505,6.1015a6.0145,6.0145,0,0,1-3.6465-1.9209q-1.6143-1.6713-1.1807-5.206l1.15-9.3936ZM711.9336,501.623l10.3115,3.4629-7.7334,23.0284,14.0117,4.705,7.7334-23.0283,9.1553,3.0752-9.5654,28.4844,14.5664,4.8916,15.9473-47.49-63.1192-21.1963-15.9482,47.49,15.0752,5.0625ZM684.42,589.3721q-.7206,7.8442,1.8906,12.1045a21.3816,21.3816,0,0,0,7.5684,7.1855,17.72,17.72,0,0,0,15.4815,1.7451q7.8764-2.7421,13.7285-12.6562l17.6777-29.9522-57.3418-33.8427-10.3887,17.6015L694.9648,564.5l-3.2753,5.55-26.8721-4.5664-11.5166,19.5137ZM718.1953,578.21l-4.7851,8.1084q-3.99,6.763-9.4942,3.5146a5.372,5.372,0,0,1-2.8847-4.4209,10.7472,10.7472,0,0,1,1.7617-6.1533l4.4384-7.5195Zm-90.2988,35.1464q-9.797,10.4049-9.1319,23.3262.6636,12.9185,11.5323,23.1524a34.7777,34.7777,0,0,0,22.48,9.71q12.9624.7485,24.4659-11.4678l17.6562-18.7519-48.4775-45.6436ZM669.8789,643.84l-3.6445,3.8711a9.8246,9.8246,0,0,1-9.9717,2.9053,24.2932,24.2932,0,0,1-11.251-6.3389q-6.1787-5.8183-7.376-11.7343-1.1952-5.9179,2.2823-9.61l3.6445-3.8711ZM552.12,674.582l55.1846,42.711,17.7334-12.3487L603.86,638.5566l-13.6163,9.4805,4.2168,13.0527-14.6386,10.1924-10.586-8.6181Zm54.4121,19.3516-15.457-12.7725,8.84-6.1562Zm-88.4677,67.3125,15.374-6.3516-7.5254-18.2138a96.8654,96.8654,0,0,0-8.1113-15.543,94.1275,94.1275,0,0,0,11.3711,9.1309l23.65,16.6162,17.8536-7.376L545.25,677.9707l-15.3281,6.333,12.3125,29.8a46.3418,46.3418,0,0,0,5.66,9.4834,112.1677,112.1677,0,0,0-11.7939-10.0039l-28.0889-20.2266-15.373,6.3516Zm-92.7032-49.8984q-14.2485,1.1044-22.4521,11.1084t-7.05,24.8867a34.7822,34.7822,0,0,0,10.0947,22.3115q9.0849,9.2769,25.8154,7.9805l25.6787-1.99L452.3047,709.26Zm10.541,50.8-5.3007.41a9.8232,9.8232,0,0,1-9.3311-4.56,24.2951,24.2951,0,0,1-4.0566-12.26q-.6562-8.4624,2.44-13.6435,3.0967-5.1827,8.1543-5.5733l5.3018-.4111ZM361.0713,726.03l-1.3784,10.79-24.0962-3.0771-1.8726,14.6611,24.0967,3.0771-1.2236,9.58-29.8062-3.8066-1.9463,15.2422,49.6924,6.3467,8.4356-66.0479L333.28,706.4492l-2.0147,15.7744Zm-91.4258-9.7969q-7.8333.8262-11.501,4.2207a21.3771,21.3771,0,0,0-5.5669,8.8281,17.7173,17.7173,0,0,0,1.3164,15.5235q4.2306,7.188,15.0967,10.9882l32.8311,11.4786,21.9751-62.8536-19.2935-6.7451L296.1,721.71l-6.084-2.127-.7768-27.2461-21.3887-7.4775Zm17.5518,30.94-8.8872-3.1074q-7.4128-2.5913-5.3042-8.624a5.3716,5.3716,0,0,1,3.7719-3.6934,10.7411,10.7411,0,0,1,6.3789.5244l8.2422,2.8819ZM207.9248,646.5186Q196,637.5435,188.85,639.457a20.9209,20.9209,0,0,0-11.6084,7.8389q-7.45,9.8994,1,20.167a14.3394,14.3394,0,0,0-10.0137-.6074,15.382,15.382,0,0,0-7.6533,5.5039,17.559,17.559,0,0,0-3.4458,12.6084q.6613,7.1514,9.0791,13.4883l27.0088,20.3291,40.0415-53.1993ZM186.7676,696.043l-7.2881-5.4854q-5.4558-4.1074-2.1123-8.55a6.0107,6.0107,0,0,1,3.4868-2.1992q2.2543-.5625,5.1,1.5791l7.561,5.6914Zm15.2539-20.2666-7.4053-5.5733q-3.5851-2.6982-3.771-5.25a6.2784,6.2784,0,0,1,1.1929-4.3838,5.8451,5.8451,0,0,1,3.8623-2.2519q2.4837-.419,5.4453,1.81l7.9507,5.9843ZM156.46,620.2676l-8.1372,7.22-16.1216-18.1719-11.0562,9.8086,16.1216,18.1719-7.2251,6.4092L110.1,621.2275,98.606,631.4248l33.2461,37.4746L181.66,624.7119l-33.2461-37.4746L136.5181,597.79Zm-62.4663-67.46q-6.4512-4.5205-11.4458-4.3691a21.3837,21.3837,0,0,0-9.9952,3.0029,17.7155,17.7155,0,0,0-9.2011,12.5713q-1.53,8.1987,4.17,18.2012L84.7441,612.43l57.8467-32.9727L132.47,561.7,110.3481,574.31l-3.1918-5.6,17.3056-21.0577-11.22-19.6855Zm-7.0806,34.86-4.6621-8.18q-3.8885-6.8219,1.6626-9.9873a5.377,5.377,0,0,1,5.27-.3086,10.7476,10.7476,0,0,1,4.4663,4.5849l4.3237,7.586ZM101.29,491.835q-4.1418-13.6788-15.6757-19.5391t-25.82-1.5352A34.7817,34.7817,0,0,0,40.1748,485.416q-7.1067,10.8663-2.2446,26.9268l7.4634,24.65,63.727-19.294ZM53.9438,513.05l-1.5405-5.0889a9.8256,9.8256,0,0,1,2.4483-10.0937,24.2986,24.2986,0,0,1,11.101-6.5967q8.1234-2.4594,13.8492-.5488t7.1962,6.7656l1.5406,5.0889ZM86.0864,395.6436l-64.57,26.4619,1.8355,21.5312,68.0888,14.8262-1.4092-16.5322-13.4135-2.8692L75.103,421.2891l12.7549-4.8643Zm-43.95,37.4638L60.9243,426.1l.9151,10.7344ZM27.8413,322.9517l-2.1348,16.4961,19.544,2.5293a96.7971,96.7971,0,0,0,17.5185.6933,94.0661,94.0661,0,0,0-13.5771,5.3242L23.0142,360.25l-2.479,19.1568,66.0332,8.5458,2.1284-16.4477L56.72,367.3662a46.33,46.33,0,0,0-11.0425.1939,112.1575,112.1575,0,0,0,14.5454-5.2574L91.74,347.9937l2.1348-16.4961Zm89.38-55.6236q6.1354-12.9081,1.541-25.0029-4.5937-12.093-18.0752-18.5015a34.78,34.78,0,0,0-24.3755-2.35q-12.5684,3.2614-19.7715,18.417L45.4844,263.1523l60.1367,28.5831Zm-49.3062-16.144,2.2827-4.8018a9.8221,9.8221,0,0,1,8.6006-5.8227,24.3,24.3,0,0,1,12.6519,2.5835q7.6655,3.6438,10.6181,8.9087t.775,9.8466l-2.2823,4.8023ZM136.5591,204.32l-8.6582-6.5854L142.6074,178.4l-11.7641-8.9483-14.7061,19.335L108.45,182.94l18.1909-23.916-12.23-9.3022L84.083,189.5947l52.9956,40.31,30.3281-39.873-12.6567-9.627Zm54.0762-74.3608q3.1815-7.2055,2.0634-12.0757a21.3818,21.3818,0,0,0-4.8862-9.2222,17.7151,17.7151,0,0,0-14.1187-6.5849q-8.3408.0907-17.0449,7.6245l-26.2968,22.7622,43.5766,50.3437,15.4531-13.3764-16.664-19.2525,4.873-4.2178,24.0176,12.8873L218.74,144.019Zm-35.5718-.1768,7.1181-6.1616q5.9377-5.1394,10.12-.3081a5.3732,5.3732,0,0,1,1.3261,5.11,10.7387,10.7387,0,0,1-3.63,5.2714l-6.6016,5.7144Z" transform="translate(-20.5352 -20.9771)"/></svg>